<svg width="764" height="741" viewBox="0 0 764 741" fill="none" xmlns="http://www.w3.org/2000/svg">
<g opacity="0.32">
<path opacity="0.0526316" d="M59.3889 598.134C75.5172 619.592 127.065 655.498 204.23 627.464C300.686 592.422 337.991 499.534 424.079 451.371C487.619 415.823 658.353 362.463 756.528 421.426" stroke="#0E141D" stroke-width="0.4"/>
<path opacity="0.105263" d="M43.4803 553.15C57.2774 576.176 104.79 617.274 184.462 597.46C284.053 572.692 330.863 484.212 421.514 445.311C488.421 416.6 663.798 381.379 755.271 450.281" stroke="#0E141D" stroke-width="0.4"/>
<path opacity="0.157895" d="M31.4622 507.561C42.7768 531.903 85.7329 577.742 167.04 566.364C268.674 552.142 324.476 469.04 418.697 439.828C488.239 418.267 666.336 401.571 750.106 479.657" stroke="#0E141D" stroke-width="0.4"/>
<path opacity="0.210526" d="M23.376 461.773C32.0842 487.165 70.0135 537.243 152.065 534.426C254.628 530.905 318.811 454.092 415.57 434.889C486.985 420.715 665.851 422.727 741 509.142" stroke="#0E141D" stroke-width="0.4"/>
<path opacity="0.263158" d="M19.2214 416.201C25.2279 442.364 57.7148 496.132 139.611 501.908C241.981 509.127 313.841 439.444 412.077 430.459C484.582 423.828 662.259 444.525 727.963 538.322" stroke="#0E141D" stroke-width="0.4"/>
<path opacity="0.315789" d="M18.9533 371.255C22.1921 397.902 48.8807 454.771 129.724 469.076C230.779 486.956 309.53 425.166 408.166 426.499C480.967 427.483 655.507 466.639 711.047 566.79" stroke="#0E141D" stroke-width="0.4"/>
<path opacity="0.368421" d="M22.4861 327.335C22.9219 354.175 43.5198 413.523 122.425 436.199C221.057 464.545 305.836 411.325 403.792 422.961C476.092 431.55 645.583 488.735 690.35 594.143" stroke="#0E141D" stroke-width="0.4"/>
<path opacity="0.421053" d="M29.6916 284.836C27.3195 311.574 41.601 372.75 117.704 403.55C212.833 442.05 302.71 397.983 398.913 419.795C469.919 435.894 632.504 510.483 666.007 619.993" stroke="#0E141D" stroke-width="0.4"/>
<path opacity="0.473684" d="M40.4009 244.132C35.2469 270.475 43.0556 332.809 115.522 371.395C206.105 419.628 300.096 385.197 393.493 416.946C462.427 440.379 616.324 531.554 638.198 643.966" stroke="#0E141D" stroke-width="0.4"/>
<path opacity="0.526316" d="M54.406 205.58C46.5266 231.24 47.7768 294.048 115.813 339.998C200.858 397.436 297.933 373.018 387.5 414.355C453.607 444.865 597.13 551.628 607.134 665.71" stroke="#0E141D" stroke-width="0.4"/>
<path opacity="0.578947" d="M71.4658 169.512C60.9473 194.208 55.6255 256.803 118.486 309.613C197.061 375.625 296.157 361.488 380.912 411.961C443.467 449.214 575.045 570.394 573.069 684.897" stroke="#0E141D" stroke-width="0.4"/>
<path opacity="0.631579" d="M91.3037 136.235C78.2614 159.697 66.4258 221.392 123.422 280.483C194.667 354.347 294.697 350.646 373.712 409.702C432.031 453.29 550.221 587.56 536.287 701.229" stroke="#0E141D" stroke-width="0.4"/>
<path opacity="0.684211" d="M113.612 106.024C98.1884 127.993 79.9687 188.114 130.476 252.839C193.609 333.746 293.479 340.521 365.888 407.513C419.331 456.958 522.839 602.846 497.099 714.436" stroke="#0E141D" stroke-width="0.4"/>
<path opacity="0.736842" d="M138.056 79.1186C120.421 99.3557 96.0164 157.242 139.481 226.892C193.812 313.955 292.426 331.132 357.436 405.326C405.418 460.086 493.109 615.995 455.846 724.283" stroke="#0E141D" stroke-width="0.4"/>
<path opacity="0.789474" d="M164.28 55.7265C144.626 74.0094 114.305 129.028 150.251 202.84C195.184 295.105 291.462 322.496 348.36 403.078C390.356 462.554 461.27 626.775 412.891 730.575" stroke="#0E141D" stroke-width="0.4"/>
<path opacity="0.842105" d="M191.906 36.0127C170.449 52.141 134.543 103.689 162.577 180.854C197.619 277.31 290.506 314.615 338.67 400.703C374.218 464.243 427.578 634.977 368.615 733.151" stroke="#0E141D" stroke-width="0.4"/>
<path opacity="0.894737" d="M220.543 20.1044C197.517 33.9014 156.419 81.4137 176.234 161.086C201.001 260.677 289.481 307.487 328.382 398.138C357.093 465.045 392.314 640.422 323.412 731.895" stroke="#0E141D" stroke-width="0.4"/>
<path opacity="0.947368" d="M249.786 8.08613C225.444 19.4008 179.605 62.3568 190.983 143.664C205.205 245.298 288.307 301.1 317.519 395.321C339.08 464.863 355.776 642.96 277.689 726.73" stroke="#0E141D" stroke-width="0.4"/>
<path d="M279.227 0C253.836 8.70825 203.757 46.6375 206.574 128.689C210.095 231.252 286.908 295.435 306.111 392.194C320.285 463.609 318.274 642.475 231.858 717.624" stroke="#0E141D" stroke-width="0.4"/>
</g>
</svg>
