<svg width="442" height="188" viewBox="0 0 442 188" fill="none" xmlns="http://www.w3.org/2000/svg">
<path d="M317.344 87.8283V60.5679H346.901C350.385 60.5679 353.734 62.3022 355.453 65.3439C355.453 65.3752 355.469 65.396 355.469 65.4064L368.057 87.8283H317.344ZM429.896 105.63C429.896 105.235 429.885 104.844 429.833 104.448L383.536 102.349L428.448 100.313C427.688 99.0366 426.677 97.9272 425.464 97.0939H425.448L353.734 95.2345L413.016 93.7033C411.813 92.547 410.203 91.8856 408.5 91.8856L378.349 88.5575L364.604 64.021C362.917 61.0054 360.438 58.5783 357.521 56.9533L326.198 54.5835H309.328V158.141H326.292C330.078 158.141 332.984 154.766 332.401 151.026C331.99 148.453 331.896 145.771 332.177 143.042C333.677 127.88 346.396 115.886 361.604 115.193C379.391 114.37 394.109 128.557 394.109 146.198C394.109 147.854 393.969 149.479 393.719 151.073C393.13 154.797 396.068 158.141 399.839 158.141H419.422C425.208 158.141 429.896 153.458 429.896 147.682V147.365L403.703 146.182L429.896 145V105.63Z" fill="#252D33"/>
<path d="M363.057 158.156C356.463 158.156 351.099 152.792 351.099 146.182C351.099 139.589 356.463 134.219 363.057 134.219C369.666 134.219 375.031 139.589 375.031 146.182C375.031 152.792 369.666 158.156 363.057 158.156ZM363.057 121.787C349.583 121.787 338.661 132.708 338.661 146.182C338.661 159.656 349.583 170.594 363.057 170.594C376.552 170.594 387.468 159.656 387.468 146.182C387.468 132.708 376.552 121.787 363.057 121.787Z" fill="#3C4BDC"/>
<path d="M304.396 158.141H298.083V48.276C298.083 35.0625 287.333 24.3125 274.125 24.3125H272V18H274.125C290.813 18 304.396 31.5833 304.396 48.276V158.141Z" fill="#252D33"/>
<path d="M346.917 53.0208L326.198 54.5833H309.328V44.1719H324.333C332.729 44.1719 340.776 47.3438 346.917 53.0208Z" fill="#252D33"/>
<path d="M22.52 59.76V86H15.44V59.76H22.52ZM25.5131 66.08V59.76H52.0331V66.08H42.3131V86H35.2331V66.08H25.5131ZM75.3809 59.76V79.68H92.3809V86H68.3009V59.76H75.3809ZM109.27 86.52C106.097 86.52 103.297 85.9733 100.87 84.88C98.47 83.76 96.6167 82.1867 95.31 80.16C94.0033 78.1067 93.35 75.7333 93.35 73.04V72.76C93.35 70.04 94.0033 67.6667 95.31 65.64C96.6167 63.5867 98.47 62.0133 100.87 60.92C103.297 59.8 106.097 59.24 109.27 59.24C112.497 59.24 115.31 59.8 117.71 60.92C120.11 62.0133 121.963 63.5867 123.27 65.64C124.577 67.6667 125.23 70.04 125.23 72.76V73.04C125.23 75.76 124.577 78.1333 123.27 80.16C121.963 82.1867 120.11 83.76 117.71 84.88C115.31 85.9733 112.497 86.52 109.27 86.52ZM109.27 79.92C115.11 79.92 118.03 77.6667 118.03 73.16V72.68C118.03 70.44 117.283 68.7467 115.79 67.6C114.323 66.4267 112.15 65.84 109.27 65.84C106.443 65.84 104.283 66.4267 102.79 67.6C101.297 68.7733 100.55 70.4667 100.55 72.68V73.16C100.55 75.3733 101.283 77.0533 102.75 78.2C104.217 79.3467 106.39 79.92 109.27 79.92ZM160.388 71.32V86H154.068L153.908 84.08C152.681 84.9333 151.335 85.56 149.868 85.96C148.428 86.3333 146.748 86.52 144.828 86.52C141.495 86.52 138.588 85.9733 136.108 84.88C133.655 83.7867 131.761 82.2267 130.428 80.2C129.095 78.1733 128.428 75.7867 128.428 73.04V72.76C128.428 70.0667 129.095 67.7067 130.428 65.68C131.761 63.6267 133.655 62.04 136.108 60.92C138.561 59.8 141.415 59.24 144.668 59.24C147.868 59.24 150.641 59.6267 152.988 60.4C155.361 61.1733 157.175 62.28 158.428 63.72C159.708 65.16 160.348 66.8533 160.348 68.8V68.96H153.108V68.8C153.108 68.24 152.735 67.72 151.988 67.24C151.241 66.7333 150.241 66.3333 148.988 66.04C147.735 65.7467 146.388 65.6 144.948 65.6C141.881 65.6 139.561 66.2 137.988 67.4C136.415 68.6 135.628 70.36 135.628 72.68V73.16C135.628 75.5067 136.401 77.2533 137.948 78.4C139.495 79.5467 141.828 80.12 144.948 80.12C146.815 80.12 148.481 79.9333 149.948 79.56C151.441 79.1867 152.655 78.6533 153.588 77.96V76.8H140.868V71.32H160.388ZM171.504 59.76V86H164.424V59.76H171.504ZM189.378 86.52C185.031 86.52 181.711 85.72 179.418 84.12C177.151 82.52 176.018 80.2 176.018 77.16V76.76H182.938V77.16C182.938 78.2533 183.511 79.0933 184.658 79.68C185.804 80.24 187.471 80.52 189.658 80.52C193.551 80.52 195.498 79.7867 195.498 78.32V78.04C195.498 77.5067 195.231 77.0933 194.698 76.8C194.164 76.48 193.298 76.2267 192.098 76.04L185.018 74.96C182.138 74.5067 179.978 73.6933 178.538 72.52C177.124 71.3467 176.418 69.76 176.418 67.76V67.36C176.418 64.8 177.511 62.8133 179.698 61.4C181.911 59.96 185.018 59.24 189.018 59.24C193.231 59.24 196.458 60.0133 198.698 61.56C200.964 63.08 202.098 65.28 202.098 68.16V68.48H195.218V68.16C195.218 66.2133 193.151 65.24 189.018 65.24C187.204 65.24 185.831 65.4133 184.898 65.76C183.964 66.08 183.498 66.56 183.498 67.2V67.48C183.498 67.9333 183.738 68.2933 184.217 68.56C184.724 68.8 185.564 69.0133 186.738 69.2L193.818 70.28C196.831 70.7333 199.058 71.5733 200.498 72.8C201.964 74 202.698 75.64 202.698 77.72V78.12C202.698 80.7867 201.524 82.8533 199.178 84.32C196.858 85.7867 193.591 86.52 189.378 86.52ZM204.185 66.08V59.76H230.705V66.08H220.985V86H213.905V66.08H204.185ZM240.801 59.76V86H233.721V59.76H240.801ZM260.954 86.52C257.728 86.52 254.888 85.9733 252.434 84.88C250.008 83.76 248.128 82.1867 246.794 80.16C245.488 78.1333 244.834 75.76 244.834 73.04V72.76C244.834 70.04 245.488 67.6667 246.794 65.64C248.128 63.5867 250.008 62.0133 252.434 60.92C254.888 59.8 257.728 59.24 260.954 59.24C263.968 59.24 266.674 59.7333 269.074 60.72C271.474 61.7067 273.341 63.0667 274.674 64.8C276.034 66.5333 276.714 68.4933 276.714 70.68V71H269.474V70.68C269.474 69.2133 268.688 68.04 267.114 67.16C265.568 66.28 263.514 65.84 260.954 65.84C255.008 65.84 252.034 68.12 252.034 72.68V73.16C252.034 75.4267 252.768 77.12 254.234 78.24C255.701 79.36 257.941 79.92 260.954 79.92C263.594 79.92 265.674 79.4933 267.194 78.64C268.714 77.7867 269.474 76.6133 269.474 75.12V74.84H276.714V75.12C276.714 77.3067 276.034 79.2667 274.674 81C273.341 82.7333 271.474 84.0933 269.074 85.08C266.674 86.04 263.968 86.52 260.954 86.52Z" fill="#3C4BDC"/>
<path d="M26.7301 116.06C26.5653 115.543 26.3438 115.08 26.0653 114.67C25.7926 114.256 25.4659 113.903 25.0852 113.614C24.7045 113.318 24.2699 113.094 23.7812 112.94C23.2983 112.787 22.767 112.71 22.1875 112.71C21.2045 112.71 20.3182 112.963 19.5284 113.469C18.7386 113.974 18.1136 114.716 17.6534 115.693C17.1989 116.665 16.9716 117.855 16.9716 119.264C16.9716 120.679 17.2017 121.875 17.6619 122.852C18.1222 123.83 18.7528 124.571 19.554 125.077C20.3551 125.582 21.267 125.835 22.2898 125.835C23.2386 125.835 24.0653 125.642 24.7699 125.256C25.4801 124.869 26.0284 124.324 26.4148 123.619C26.8068 122.909 27.0028 122.074 27.0028 121.114L27.6847 121.241H22.6903V119.068H29.5511V121.054C29.5511 122.52 29.2386 123.793 28.6136 124.872C27.9943 125.946 27.1364 126.776 26.0398 127.361C24.9489 127.946 23.6989 128.239 22.2898 128.239C20.7102 128.239 19.3239 127.875 18.1307 127.148C16.9432 126.42 16.017 125.389 15.3523 124.054C14.6875 122.713 14.3551 121.122 14.3551 119.281C14.3551 117.889 14.5483 116.639 14.9347 115.531C15.321 114.423 15.8636 113.483 16.5625 112.71C17.267 111.932 18.0938 111.338 19.0426 110.929C19.9972 110.514 21.0398 110.307 22.1705 110.307C23.1136 110.307 23.9915 110.446 24.804 110.724C25.6222 111.003 26.3494 111.398 26.9858 111.909C27.6278 112.42 28.1591 113.028 28.5795 113.733C29 114.432 29.2841 115.207 29.4318 116.06H26.7301ZM35.2379 110.545V128H32.6896V110.545H35.2379ZM44.1804 128.264C42.9531 128.264 41.8821 127.983 40.9673 127.42C40.0526 126.858 39.3423 126.071 38.8366 125.06C38.331 124.048 38.0781 122.866 38.0781 121.514C38.0781 120.156 38.331 118.969 38.8366 117.952C39.3423 116.935 40.0526 116.145 40.9673 115.582C41.8821 115.02 42.9531 114.739 44.1804 114.739C45.4077 114.739 46.4787 115.02 47.3935 115.582C48.3082 116.145 49.0185 116.935 49.5241 117.952C50.0298 118.969 50.2827 120.156 50.2827 121.514C50.2827 122.866 50.0298 124.048 49.5241 125.06C49.0185 126.071 48.3082 126.858 47.3935 127.42C46.4787 127.983 45.4077 128.264 44.1804 128.264ZM44.1889 126.125C44.9844 126.125 45.6435 125.915 46.1662 125.494C46.6889 125.074 47.0753 124.514 47.3253 123.815C47.581 123.116 47.7088 122.347 47.7088 121.506C47.7088 120.67 47.581 119.903 47.3253 119.205C47.0753 118.5 46.6889 117.935 46.1662 117.509C45.6435 117.082 44.9844 116.869 44.1889 116.869C43.3878 116.869 42.723 117.082 42.1946 117.509C41.6719 117.935 41.2827 118.5 41.027 119.205C40.777 119.903 40.652 120.67 40.652 121.506C40.652 122.347 40.777 123.116 41.027 123.815C41.2827 124.514 41.6719 125.074 42.1946 125.494C42.723 125.915 43.3878 126.125 44.1889 126.125ZM53.3317 128V110.545H55.88V117.031H56.0334C56.1811 116.759 56.3942 116.443 56.6726 116.085C56.951 115.727 57.3374 115.415 57.8317 115.148C58.326 114.875 58.9794 114.739 59.7919 114.739C60.8487 114.739 61.7919 115.006 62.6214 115.54C63.451 116.074 64.1016 116.844 64.5732 117.849C65.0504 118.855 65.2891 120.065 65.2891 121.48C65.2891 122.895 65.0533 124.108 64.5817 125.119C64.1101 126.125 63.4624 126.901 62.6385 127.446C61.8146 127.986 60.8743 128.256 59.8175 128.256C59.022 128.256 58.3714 128.122 57.8658 127.855C57.3658 127.588 56.9737 127.276 56.6896 126.918C56.4055 126.56 56.1868 126.241 56.0334 125.963H55.8203V128H53.3317ZM55.8288 121.455C55.8288 122.375 55.9624 123.182 56.2294 123.875C56.4964 124.568 56.8828 125.111 57.3885 125.503C57.8942 125.889 58.5135 126.082 59.2464 126.082C60.0078 126.082 60.6442 125.881 61.1555 125.477C61.6669 125.068 62.0533 124.514 62.3146 123.815C62.5817 123.116 62.7152 122.33 62.7152 121.455C62.7152 120.591 62.5845 119.815 62.3232 119.128C62.0675 118.44 61.6811 117.898 61.1641 117.5C60.6527 117.102 60.0135 116.903 59.2464 116.903C58.5078 116.903 57.8828 117.094 57.3714 117.474C56.8658 117.855 56.4822 118.386 56.2209 119.068C55.9595 119.75 55.8288 120.545 55.8288 121.455ZM71.9602 128.29C71.1307 128.29 70.3807 128.136 69.7102 127.83C69.0398 127.517 68.5085 127.065 68.1165 126.474C67.7301 125.884 67.5369 125.159 67.5369 124.301C67.5369 123.562 67.679 122.955 67.9631 122.477C68.2472 122 68.6307 121.622 69.1136 121.344C69.5966 121.065 70.1364 120.855 70.733 120.713C71.3295 120.571 71.9375 120.463 72.5568 120.389C73.3409 120.298 73.9773 120.224 74.4659 120.168C74.9545 120.105 75.3097 120.006 75.5312 119.869C75.7528 119.733 75.8636 119.511 75.8636 119.205V119.145C75.8636 118.401 75.6534 117.824 75.233 117.415C74.8182 117.006 74.1989 116.801 73.375 116.801C72.517 116.801 71.8409 116.991 71.3466 117.372C70.858 117.747 70.5199 118.165 70.3324 118.625L67.9375 118.08C68.2216 117.284 68.6364 116.642 69.1818 116.153C69.733 115.659 70.3665 115.301 71.0824 115.08C71.7983 114.852 72.5511 114.739 73.3409 114.739C73.8636 114.739 74.4176 114.801 75.0028 114.926C75.5938 115.045 76.1449 115.267 76.6562 115.591C77.1733 115.915 77.5966 116.378 77.9261 116.98C78.2557 117.577 78.4205 118.352 78.4205 119.307V128H75.9318V126.21H75.8295C75.6648 126.54 75.4176 126.864 75.0881 127.182C74.7585 127.5 74.3352 127.764 73.8182 127.974C73.3011 128.185 72.6818 128.29 71.9602 128.29ZM72.5142 126.244C73.2188 126.244 73.821 126.105 74.321 125.827C74.8267 125.548 75.2102 125.185 75.4716 124.736C75.7386 124.281 75.8722 123.795 75.8722 123.278V121.591C75.7813 121.682 75.6051 121.767 75.3438 121.847C75.0881 121.92 74.7955 121.986 74.4659 122.043C74.1364 122.094 73.8153 122.142 73.5028 122.188C73.1903 122.227 72.929 122.261 72.7188 122.29C72.2244 122.352 71.7727 122.457 71.3636 122.605C70.9602 122.753 70.6364 122.966 70.392 123.244C70.1534 123.517 70.0341 123.881 70.0341 124.335C70.0341 124.966 70.267 125.443 70.733 125.767C71.1989 126.085 71.7926 126.244 72.5142 126.244ZM84.3629 110.545V128H81.8146V110.545H84.3629Z" fill="#252D33"/>
</svg>
