<svg width="78" height="24" viewBox="0 0 78 24" fill="none" xmlns="http://www.w3.org/2000/svg">
<path d="M13.1637 7.8797V0H10.9446V7.8797L6.98944 1.05263L5.07226 2.16541L9.02741 8.99248L2.17383 5.05263L1.0718 6.9624L7.9103 10.9023H0V13.1128H7.9103L1.0718 17.0526L2.17383 18.9624L9.02741 15.0226L5.07226 21.8496L6.98944 22.9474L10.9446 16.1203V24H13.1637V16.1203" fill="#0E141D"/>
<path d="M10.9446 7.8797V0H13.1637V7.8797L17.1189 1.06767L19.0361 2.16541L15.0809 8.99248L21.9345 5.05263L23.0365 6.9624L16.1829 10.9023H24.0932V13.1128H16.1829L23.0365 17.0526L21.9345 18.9624L15.0809 15.0226L19.0361 21.8496L17.1189 22.9474L13.1637 16.1203V24H10.9446V16.1203" fill="#0E141D"/>
<path d="M32.0859 6.32968V7.6739H35.6393H38.6995C39.0053 7.6739 39.2932 7.81774 39.4769 8.06223C39.7362 8.40344 39.8443 8.83056 39.8574 9.25893C39.8833 10.1091 39.9256 11.6938 39.9407 13.4242L39.9781 18.0916L41.3471 18.114L42.7086 18.1289V15.0521C42.7011 11.4078 42.6039 8.65219 42.4543 7.96514C42.3121 7.30797 42.1027 6.91217 41.6314 6.41929C40.6681 5.3762 39.1294 5.13657 37.7111 5.0692C36.9081 5.03106 35.9245 4.99859 34.8389 4.99293L32.0859 4.98547V6.32968Z" fill="#0E141D"/>
<path d="M46.9082 9.437C46.9082 11.9014 46.9082 14.7588 46.9082 14.7588V18.1381C46.9082 18.1381 47.8134 18.1232 48.5016 18.1381L49.6761 18.1445L53.2145 18.1072C57.0671 18.0699 57.4261 18.0325 58.1218 17.6367C58.6156 17.3455 59.3412 16.6211 59.5806 16.188C59.9397 15.5382 59.9995 14.9632 60.0519 12.1553C60.1042 8.83957 60.0369 8.01064 59.6554 7.23398C59.1168 6.14367 57.9947 5.28487 56.9174 5.12804C56.6556 5.0907 54.2992 5.03843 51.6809 5.01603L46.9082 4.96375V9.437ZM55.713 7.7418C55.713 7.7418 56.517 7.7418 56.93 8.06917C57.4115 8.45076 57.4187 9.14097 57.4187 9.75528V11.5579C57.4187 14.5002 57.4037 14.657 57.0222 15.008C56.6107 15.3889 56.5359 15.3964 52.9526 15.4262L49.6013 15.4486V11.6102C49.6013 9.50421 49.6013 7.7418 49.6013 7.7418C49.6686 7.66712 55.713 7.7418 55.713 7.7418Z" fill="#0E141D"/>
<path d="M68.2204 5.06014C67.0833 5.11989 66.3951 5.25431 65.8341 5.53062C65.3628 5.76212 64.7119 6.4193 64.3454 7.03913C63.7918 7.97261 63.922 8.06969 63.9145 12.0426L63.9146 18.1289H65.1201H66.3502H71.6242H76.8981V16.7847V15.4405H71.7064H66.5223L66.4849 12.6176C66.4699 11.0718 66.4774 9.56327 66.4998 9.27202C66.6046 8.18171 66.9562 7.87553 68.2578 7.74858C68.6693 7.71124 70.7788 7.6739 72.9557 7.6739H76.8981V6.32968V4.98547L73.1053 5.0004C71.0107 5.0004 68.8189 5.03027 68.2204 5.06014Z" fill="#0E141D"/>
<path d="M29.762 4.9865H29.543V12.9462V18.1289H29.9394C30.1639 18.1289 30.7549 18.1065 31.2486 18.0766L32.1612 18.0318V12.9387V4.9865H31.8719H29.762Z" fill="#0E141D"/>
</svg>
